<svg width="1170" height="898.9999999999999" xmlns="http://www.w3.org/2000/svg" data-name="Capa 1">

 <g>
  <title>Layer 1</title>
  <rect id="svg_1" fill="#e8e8e8" rx="123.68" height="898.67" width="1178" y="0" x="0" class="cls-1"/>
  <polygon id="svg_2" fill="#203464" points="500.17711353302,382.39431381225586 500.17711353302,198.2043113708496 480.3271379470825,198.21426010131836 480.3271379470825,402.99428939819336 646.3771867752075,402.99428939819336 646.3771867752075,382.39431381225586 500.17711353302,382.39431381225586 " class="cls-2"/>
  <path id="svg_3" fill="#203464" d="m551.92714,198.20429l21.06,0c28.47,0 51.55,21.4 51.55,48.28c0,26 -21.63,47.28 -48.84,48.61l0,0l-19.86,0l0,45.51l19.86,0l0,-25.61c38.92,-1.3 70.68,-31.47 70.68,-68.51c0,-37.87 -33.28,-68.57 -73.39,-68.57l-92.67,0l0,20.29l71.61,0z" class="cls-2"/>
  <polygon id="svg_4" fill="#1f8ab6" points="659.6371965408325,402.99428939819336 629.5471086502075,353.64431381225586 605.0471086502075,353.96426010131836 631.957142829895,402.99428939819336 659.6371965408325,402.99428939819336 " class="cls-3"/>
  <path id="svg_5" fill="#19264b" d="m166.02714,478.85429a30.33,30.33 0 0 1 12.18,12.27a37.59,37.59 0 0 1 4.33,18.28a36.15,36.15 0 0 1 -4.41,18a30.09,30.09 0 0 1 -12.5,12.11a39.64,39.64 0 0 1 -18.7,4.25l-26.14,0a0.73,0.73 0 0 0 -0.82,0.84l0,44.9a2,2 0 0 1 -0.57,1.42a1.88,1.88 0 0 1 -1.39,0.59l-15,0a1.9,1.9 0 0 1 -1.39,-0.59a2,2 0 0 1 -0.57,-1.42l0,-113a2,2 0 0 1 0.57,-1.42a1.89,1.89 0 0 1 1.39,-0.58l44.92,0a36.76,36.76 0 0 1 18.1,4.35zm-7.51,44.2q5.06,-5 5.06,-13.18q0,-8.36 -5.06,-13.53t-13.4,-5.17l-24.33,0a0.73,0.73 0 0 0 -0.82,0.83l0,35.23a0.73,0.73 0 0 0 0.82,0.83l24.33,0q8.34,-0.01 13.4,-5.01z" class="cls-4"/>
  <path id="svg_6" fill="#19264b" d="m300.61714,590.36429c0,0.78 -0.55,1.17 -1.64,1.17l-16.77,0a3.06,3.06 0 0 1 -2.45,-1.17l-7.35,-8.35a0.78,0.78 0 0 0 -1.14,0a55.1,55.1 0 0 1 -33,10.85q-15,0 -24.74,-7.26t-9.72,-21.28q0,-11.36 6.12,-19.2a65.44,65.44 0 0 1 16.58,-14.52c0.66,-0.45 0.71,-0.84 0.17,-1.17q-8.67,-10.68 -11.44,-16.53a28,28 0 0 1 -2.77,-12.19a25.66,25.66 0 0 1 3.92,-13.93a27,27 0 0 1 11,-9.85a35.46,35.46 0 0 1 16.25,-3.59a37.78,37.78 0 0 1 16.83,3.59a27.76,27.76 0 0 1 11.51,10.1a27.22,27.22 0 0 1 4.17,15a28.55,28.55 0 0 1 -5.88,17.86a60.59,60.59 0 0 1 -15.85,14c-0.54,0.34 -0.6,0.73 -0.16,1.17q7.51,9 18.29,21.2c0.33,0.45 0.71,0.45 1.15,0a137.41,137.41 0 0 0 10.12,-13.35c0.66,-1.23 1.53,-1.45 2.62,-0.67l11.1,6.51q2,1.17 0.66,2.67a157.93,157.93 0 0 1 -13.56,18.36l-0.16,0.34a1.91,1.91 0 0 0 0.65,1.33q5.88,7 11.43,13.36c0.76,1 1.45,1.83 2,2.5s1.11,1.23 1.55,1.67a2.31,2.31 0 0 1 0.51,1.38zm-40.84,-21.37q0.66,-0.66 0,-1.17c-0.54,-0.55 -1.09,-1.17 -1.63,-1.83l-1.63,-2q-2.13,-2.51 -7,-8.18l-3.75,-4.34q-2.62,-2.84 -6.37,-7.34c-0.22,-0.34 -0.6,-0.39 -1.15,-0.17a52.12,52.12 0 0 0 -11.27,9.52a15.94,15.94 0 0 0 -3.92,10.51a11.17,11.17 0 0 0 4.15,9.06q4.15,3.42 11.19,3.42q10.12,0.03 21.38,-7.48zm-24.91,-74.79a10.73,10.73 0 0 0 -3.51,8.35a13.3,13.3 0 0 0 2,6.34a96.56,96.56 0 0 0 8.33,11.36a0.72,0.72 0 0 0 1.15,0.16a49.46,49.46 0 0 0 10.7,-8.76a13.91,13.91 0 0 0 3.67,-9.27a10.37,10.37 0 0 0 -3.59,-8.26a14,14 0 0 0 -9.48,-3.09a13.28,13.28 0 0 0 -9.27,3.17z" class="cls-4"/>
  <path id="svg_7" fill="#19264b" d="m392.73714,590.05429l-21.53,-48.1a1,1 0 0 0 -1,-0.67l-19.6,0a0.73,0.73 0 0 0 -0.82,0.83l0,47.41a2,2 0 0 1 -0.57,1.42a1.88,1.88 0 0 1 -1.39,0.59l-15,0a1.86,1.86 0 0 1 -1.38,-0.59a1.92,1.92 0 0 1 -0.58,-1.42l0,-112.84a1.92,1.92 0 0 1 0.58,-1.42a1.86,1.86 0 0 1 1.38,-0.59l44.88,0a35.76,35.76 0 0 1 17.64,4.26a29.88,29.88 0 0 1 11.93,12a36.43,36.43 0 0 1 4.24,17.78q0,11.52 -5.8,19.61a30,30 0 0 1 -16.08,11.27a0.51,0.51 0 0 0 -0.49,0.33a0.72,0.72 0 0 0 0,0.67l23,48.58a2.69,2.69 0 0 1 0.32,1c0,0.89 -0.6,1.34 -1.79,1.34l-15.66,0a2.31,2.31 0 0 1 -2.28,-1.46zm-43,-97.82l0,33.22a0.73,0.73 0 0 0 0.82,0.84l24.5,0c5.23,0 9.44,-1.59 12.66,-4.76s4.82,-7.37 4.82,-12.61s-1.61,-9.45 -4.82,-12.68s-7.43,-4.84 -12.66,-4.84l-24.5,0a0.73,0.73 0 0 0 -0.78,0.8l-0.04,0.03z" class="cls-4"/>
  <path id="svg_8" fill="#19264b" d="m504.94714,589.86429l-29.73,-113l-0.16,-0.66c0,-1 0.6,-1.51 1.8,-1.51l16,0a2.16,2.16 0 0 1 2.29,1.67l18.62,76.12c0.11,0.34 0.27,0.5 0.49,0.5s0.38,-0.16 0.49,-0.5l17.8,-76.12a2.07,2.07 0 0 1 2.13,-1.67l15.68,0a2.15,2.15 0 0 1 2.28,1.67l19,76.29c0.11,0.33 0.27,0.5 0.49,0.5s0.38,-0.17 0.49,-0.5l18.29,-76.29a2.16,2.16 0 0 1 2.29,-1.67l15.19,0c1.53,0 2.13,0.73 1.8,2.17l-28.26,113a2.16,2.16 0 0 1 -2.29,1.67l-15.19,0a2.15,2.15 0 0 1 -2.28,-1.67l-19.11,-79.63c-0.11,-0.33 -0.28,-0.53 -0.49,-0.58s-0.39,0.14 -0.49,0.58l-18.3,79.63a2.05,2.05 0 0 1 -2.12,1.67l-14.45,0a2.16,2.16 0 0 1 -2.26,-1.67z" class="cls-4"/>
  <path id="svg_9" fill="#19264b" d="m824.75714,590.05429l-21.55,-48.1a1,1 0 0 0 -1,-0.67l-19.6,0a0.73,0.73 0 0 0 -0.82,0.83l0,47.41a2,2 0 0 1 -0.57,1.42a1.88,1.88 0 0 1 -1.39,0.59l-15,0a1.86,1.86 0 0 1 -1.38,-0.59a1.92,1.92 0 0 1 -0.58,-1.42l0,-112.84a1.92,1.92 0 0 1 0.58,-1.42a1.86,1.86 0 0 1 1.38,-0.59l44.92,0a35.76,35.76 0 0 1 17.64,4.26a29.88,29.88 0 0 1 11.93,12a36.43,36.43 0 0 1 4.24,17.78q0,11.52 -5.8,19.61a30,30 0 0 1 -16.08,11.27a0.51,0.51 0 0 0 -0.49,0.33a0.72,0.72 0 0 0 0,0.67l23,48.58a2.69,2.69 0 0 1 0.32,1c0,0.89 -0.6,1.34 -1.79,1.34l-15.69,0a2.31,2.31 0 0 1 -2.27,-1.46zm-43,-97.82l0,33.22a0.73,0.73 0 0 0 0.82,0.84l24.5,0c5.23,0 9.44,-1.59 12.66,-4.76s4.82,-7.37 4.82,-12.61s-1.61,-9.45 -4.82,-12.68s-7.43,-4.84 -12.66,-4.84l-24.5,0a0.73,0.73 0 0 0 -0.78,0.8l-0.04,0.03z" class="cls-4"/>
  <path id="svg_10" fill="#19264b" d="m873.20714,590.94429a1.91,1.91 0 0 1 -0.57,-1.42l0,-112.84a1.91,1.91 0 0 1 0.57,-1.42a1.86,1.86 0 0 1 1.38,-0.59l15,0a1.87,1.87 0 0 1 1.39,0.59a2,2 0 0 1 0.57,1.42l0,97.37a0.73,0.73 0 0 0 0.82,0.83l54.72,0a1.9,1.9 0 0 1 1.39,0.59a2,2 0 0 1 0.57,1.42l0,12.68a2,2 0 0 1 -0.57,1.42a1.9,1.9 0 0 1 -1.39,0.59l-72.53,0a1.86,1.86 0 0 1 -1.35,-0.64z" class="cls-4"/>
  <path id="svg_11" fill="#19264b" d="m976.08714,590.94429a2,2 0 0 1 -0.57,-1.42l0,-112.84a2,2 0 0 1 0.57,-1.42a1.87,1.87 0 0 1 1.39,-0.59l39.85,0a47.28,47.28 0 0 1 20.42,4.18a31.43,31.43 0 0 1 13.64,11.93a33.68,33.68 0 0 1 4.82,18.11l0,48.42a33.66,33.66 0 0 1 -4.82,18.11a31.43,31.43 0 0 1 -13.64,11.93a47.14,47.14 0 0 1 -20.42,4.18l-39.85,0a1.87,1.87 0 0 1 -1.39,-0.59zm19.19,-16.11l22.87,0q8.65,0 13.8,-5.59t5.31,-14.94l0,-42.25q0,-9.52 -5.23,-15.11t-14,-5.59l-22.71,0a0.73,0.73 0 0 0 -0.81,0.83l0,81.87a0.72,0.72 0 0 0 0.77,0.78z" class="cls-4"/>
  <path id="svg_12" fill="#1f8ab6" d="m735.97714,552.51429a61.33,61.33 0 0 0 0,-38.26a5.34,5.34 0 0 0 -0.18,-0.52c-7.64,-22.42 -28,-38.49 -51.78,-38.49s-44.14,16.07 -51.78,38.49a3.5,3.5 0 0 0 -0.17,0.52a61.33,61.33 0 0 0 0,38.26a4.68,4.68 0 0 0 0.17,0.53c7.65,22.41 28,38.49 51.78,38.49s44.14,-16.08 51.78,-38.49a4.72,4.72 0 0 0 0.18,-0.53zm-52,30.68c-2.09,0 -5.47,-4 -8.3,-13a95.25,95.25 0 0 1 -3.24,-14.69l23.09,0a96.39,96.39 0 0 1 -3.25,14.69c-2.82,9 -6.2,13 -8.3,13zm-12.5,-36c-0.38,-4.45 -0.58,-9.08 -0.58,-13.83s0.2,-9.38 0.58,-13.82l25,0c0.38,4.44 0.58,9.08 0.58,13.82s-0.2,9.38 -0.58,13.83l-25,0zm-34.63,-13.83a52.38,52.38 0 0 1 1.85,-13.82l24.87,0c-0.37,4.54 -0.56,9.18 -0.56,13.82s0.19,9.29 0.56,13.83l-24.87,0a52.4,52.4 0 0 1 -1.85,-13.83zm47.13,-49.81c2.1,0 5.48,4 8.3,13a96.66,96.66 0 0 1 3.25,14.69l-23.09,0a95.52,95.52 0 0 1 3.24,-14.69c2.83,-9 6.21,-13 8.3,-13zm20.41,36l24.87,0a52.58,52.58 0 0 1 0,27.65l-24.87,0c0.37,-4.54 0.56,-9.19 0.56,-13.83s-0.19,-9.28 -0.56,-13.82zm21.79,-8.34l-22.69,0c-1.4,-10.22 -3.81,-19.39 -7.19,-25.92a48,48 0 0 1 29.88,25.92zm-54.52,-25.92c-3.38,6.53 -5.78,15.7 -7.19,25.92l-22.69,0a48.05,48.05 0 0 1 29.88,-25.92zm-29.88,70.24l22.69,0c1.41,10.23 3.81,19.4 7.19,25.92a48,48 0 0 1 -29.88,-25.92zm54.52,25.92c3.38,-6.52 5.79,-15.69 7.19,-25.92l22.72,0a48,48 0 0 1 -29.88,25.92l-0.03,0zm0,0" class="cls-3"/>
  <path id="svg_13" fill="#a1a1a0" d="m309.20714,665.69429a22.58,22.58 0 0 1 -10.17,-5.07l3.32,-4.27a18.59,18.59 0 0 0 6,3.61a20.3,20.3 0 0 0 7.07,1.2c3.58,0 6.34,-0.69 8.29,-2.09a6.84,6.84 0 0 0 2.94,-5.93l0,0a5.88,5.88 0 0 0 -1.31,-4a8.06,8.06 0 0 0 -3.36,-2.24a35.48,35.48 0 0 0 -5.32,-1.34l-0.2,0l-0.2,-0.05l-0.68,-0.12a52.51,52.51 0 0 1 -7.51,-1.86a10.53,10.53 0 0 1 -4.85,-3.52a11.15,11.15 0 0 1 -2,-7.08l0,0a13.63,13.63 0 0 1 1.87,-7.31a12,12 0 0 1 5.48,-4.61a21.49,21.49 0 0 1 8.65,-1.58a21,21 0 0 1 4.73,0.54a23.24,23.24 0 0 1 4.62,1.6a27.56,27.56 0 0 1 4.51,2.68l-3.1,4.34a23.44,23.44 0 0 0 -5.43,-3a15.23,15.23 0 0 0 -5.33,-1q-5.09,0 -7.88,2.13a7.11,7.11 0 0 0 -2.79,6l0,0a5.34,5.34 0 0 0 1.41,3.93a8.68,8.68 0 0 0 3.52,2.12a50.19,50.19 0 0 0 5.83,1.43l0.25,0.06l0.25,0.07l0.35,0.06l0.36,0.06a40.48,40.48 0 0 1 7,2a10.85,10.85 0 0 1 4.65,3.67a11.27,11.27 0 0 1 1.86,6.83l0,0.07a12.88,12.88 0 0 1 -2,7.2a12.28,12.28 0 0 1 -5.66,4.57a23,23 0 0 1 -8.95,1.57a28.48,28.48 0 0 1 -6.22,-0.67z" class="cls-5"/>
  <path id="svg_14" fill="#a1a1a0" d="m347.29714,619.77429l5.4,0l0,46.08l-5.4,0l0,-46.08zm3.07,0l25.89,0l0,5.2l-25.89,0l0,-5.2zm0,20.6l22.48,0l0,5.2l-22.48,0l0,-5.2zm0,20.28l25.89,0l0,5.2l-25.89,0l0,-5.2z" class="cls-5"/>
  <path id="svg_15" fill="#a1a1a0" d="m391.60714,619.74429l5.39,0l0,46.11l-5.39,0l0,-46.11zm2.76,21.43l15.38,0a7.27,7.27 0 0 0 3.81,-1a6.72,6.72 0 0 0 2.54,-2.85a10,10 0 0 0 0.93,-4.27a9.66,9.66 0 0 0 -0.9,-4.26a6.54,6.54 0 0 0 -2.54,-2.85a7.23,7.23 0 0 0 -3.84,-1l-15.38,0l0,-5.2l15.13,0a13.91,13.91 0 0 1 6.87,1.65a11.49,11.49 0 0 1 4.59,4.68a15.87,15.87 0 0 1 0,14a11.34,11.34 0 0 1 -4.61,4.67a13.89,13.89 0 0 1 -6.85,1.65l-15.13,0l0,-5.22zm13.36,3.77l5.21,-1.46l11.53,22.37l-6.41,0l-10.33,-20.91z" class="cls-5"/>
  <path id="svg_16" fill="#a1a1a0" d="m434.69714,619.77429l5.8,0l11.91,37.87l11.9,-37.87l5.8,0l-15.16,46.08l-5.09,0l-15.16,-46.08z" class="cls-5"/>
  <path id="svg_17" fill="#a1a1a0" d="m488.82714,665.85429l-5.39,0l0,-46.08l5.39,0l0,46.08z" class="cls-5"/>
  <path id="svg_18" fill="#a1a1a0" d="m513.33714,664.20429a14.21,14.21 0 0 1 -5.5,-6a19.81,19.81 0 0 1 -2,-9l0,-12.64a19.82,19.82 0 0 1 2,-9a14.36,14.36 0 0 1 5.5,-6a16.6,16.6 0 0 1 15.37,-0.49a14.94,14.94 0 0 1 5.44,4.69a17.8,17.8 0 0 1 3,7l-5.46,0a11.45,11.45 0 0 0 -2.22,-4.23a11,11 0 0 0 -3.59,-2.87a10,10 0 0 0 -9.65,0.48a9.86,9.86 0 0 0 -3.58,4.18a14.55,14.55 0 0 0 -1.27,6.28l0,12.64a14.55,14.55 0 0 0 1.27,6.26a9.47,9.47 0 0 0 9,5.66a10.08,10.08 0 0 0 4.28,-1a10.33,10.33 0 0 0 3.58,-2.79a11.21,11.21 0 0 0 2.22,-4.38l5.46,0a17.53,17.53 0 0 1 -3,7a15.08,15.08 0 0 1 -5.46,4.69a15.46,15.46 0 0 1 -7.1,1.65a15.69,15.69 0 0 1 -8.29,-2.13z" class="cls-5"/>
  <path id="svg_19" fill="#a1a1a0" d="m552.44714,619.77429l5.4,0l0,46.08l-5.4,0l0,-46.08zm3.07,0l25.89,0l0,5.2l-25.89,0l0,-5.2zm0,20.6l22.48,0l0,5.2l-22.48,0l0,-5.2zm0,20.28l25.89,0l0,5.2l-25.89,0l0,-5.2z" class="cls-5"/>
  <path id="svg_20" fill="#a1a1a0" d="m604.13714,665.69429a22.54,22.54 0 0 1 -10.18,-5.07l3.32,-4.27a18.64,18.64 0 0 0 6,3.61a20.26,20.26 0 0 0 7.07,1.2c3.57,0 6.34,-0.69 8.29,-2.09a6.86,6.86 0 0 0 2.93,-5.93l0,0a5.87,5.87 0 0 0 -1.3,-4a8,8 0 0 0 -3.37,-2.24a35,35 0 0 0 -5.31,-1.34l-0.21,0l-0.2,-0.05l-0.68,-0.12a52.33,52.33 0 0 1 -7.5,-1.86a10.61,10.61 0 0 1 -4.86,-3.52a11.15,11.15 0 0 1 -2,-7.08l0,0a13.63,13.63 0 0 1 1.88,-7.31a11.94,11.94 0 0 1 5.47,-4.61a21.52,21.52 0 0 1 8.65,-1.58a20.93,20.93 0 0 1 4.73,0.54a23.24,23.24 0 0 1 4.62,1.6a27.64,27.64 0 0 1 4.52,2.68l-3.11,4.34a23.38,23.38 0 0 0 -5.42,-3a15.28,15.28 0 0 0 -5.34,-1q-5.09,0 -7.87,2.13a7.11,7.11 0 0 0 -2.79,6l0,0a5.34,5.34 0 0 0 1.41,3.93a8.62,8.62 0 0 0 3.52,2.12a49.67,49.67 0 0 0 5.83,1.43l0.25,0.06l0.24,0.07l0.36,0.06l0.36,0.06a40.34,40.34 0 0 1 6.94,2a10.85,10.85 0 0 1 4.65,3.67a11.27,11.27 0 0 1 1.86,6.83l0,0.07a12.88,12.88 0 0 1 -2,7.2a12.23,12.23 0 0 1 -5.66,4.57a23,23 0 0 1 -8.94,1.57a28.48,28.48 0 0 1 -6.16,-0.67z" class="cls-5"/>
  <path id="svg_21" fill="#a1a1a0" d="m666.78714,665.69429a22.58,22.58 0 0 1 -10.17,-5.07l3.32,-4.27a18.59,18.59 0 0 0 6,3.61a20.3,20.3 0 0 0 7.07,1.2c3.58,0 6.34,-0.69 8.3,-2.09a6.86,6.86 0 0 0 2.93,-5.93l0,0a5.88,5.88 0 0 0 -1.31,-4a8,8 0 0 0 -3.36,-2.24a35.48,35.48 0 0 0 -5.32,-1.34l-0.2,0l-0.2,-0.05l-0.68,-0.12a52.51,52.51 0 0 1 -7.51,-1.86a10.53,10.53 0 0 1 -4.85,-3.52a11.15,11.15 0 0 1 -2,-7.08l0,0a13.63,13.63 0 0 1 1.87,-7.31a12,12 0 0 1 5.48,-4.61a21.49,21.49 0 0 1 8.65,-1.58a21,21 0 0 1 4.73,0.54a23.24,23.24 0 0 1 4.62,1.6a27.56,27.56 0 0 1 4.51,2.68l-3.1,4.34a23.44,23.44 0 0 0 -5.43,-3a15.19,15.19 0 0 0 -5.33,-1q-5.08,0 -7.88,2.13a7.11,7.11 0 0 0 -2.79,6l0,0a5.34,5.34 0 0 0 1.41,3.93a8.68,8.68 0 0 0 3.52,2.12a50.19,50.19 0 0 0 5.83,1.43l0.25,0.06l0.25,0.07l0.35,0.06l0.36,0.06a40.48,40.48 0 0 1 7,2a10.85,10.85 0 0 1 4.65,3.67a11.27,11.27 0 0 1 1.86,6.83l0,0.07a12.88,12.88 0 0 1 -2,7.2a12.28,12.28 0 0 1 -5.66,4.57a23,23 0 0 1 -9,1.57a28.48,28.48 0 0 1 -6.17,-0.67z" class="cls-5"/>
  <path id="svg_22" fill="#a1a1a0" d="m701.91714,660.34429l5.39,0l0,5.51l-5.39,0l0,-5.51z" class="cls-5"/>
  <path id="svg_23" fill="#a1a1a0" d="m736.01714,619.77429l5.4,0l16.62,46.08l-5.9,0l-13.42,-39.23l-13.43,39.23l-5.89,0l16.62,-46.08zm-9,30.24l23.72,0l0,5.19l-23.72,0l0,-5.19z" class="cls-5"/>
  <path id="svg_24" fill="#a1a1a0" d="m770.11714,660.34429l5.4,0l0,5.51l-5.4,0l0,-5.51z" class="cls-5"/>
  <path id="svg_25" fill="#a1a1a0" d="m796.60714,664.20429a14.28,14.28 0 0 1 -5.5,-6a19.94,19.94 0 0 1 -2,-9l0,-12.64a20,20 0 0 1 2,-9a14.42,14.42 0 0 1 5.5,-6a16.6,16.6 0 0 1 15.37,-0.49a14.94,14.94 0 0 1 5.44,4.69a17.66,17.66 0 0 1 3,7l-5.46,0a11.58,11.58 0 0 0 -2.21,-4.23a11.12,11.12 0 0 0 -3.6,-2.87a9.65,9.65 0 0 0 -4.26,-1a9.76,9.76 0 0 0 -5.39,1.49a9.93,9.93 0 0 0 -3.58,4.18a14.7,14.7 0 0 0 -1.27,6.28l0,12.64a14.7,14.7 0 0 0 1.27,6.26a9.47,9.47 0 0 0 9,5.66a10.07,10.07 0 0 0 4.27,-1a10.46,10.46 0 0 0 3.59,-2.79a11.33,11.33 0 0 0 2.21,-4.38l5.46,0a17.53,17.53 0 0 1 -3,7a15,15 0 0 1 -5.45,4.69a15.49,15.49 0 0 1 -7.1,1.65a15.7,15.7 0 0 1 -8.29,-2.14z" class="cls-5"/>
  <path id="svg_27" d="m1512.41927,257.05431" opacity="NaN" fill="#e8e8e8"/>
 </g>
</svg>