<svg id="Capa_1" data-name="Capa 1" xmlns="http://www.w3.org/2000/svg" viewBox="0 0 1080 1080"><defs><style>.cls-1{fill:#fcfcfc;}</style></defs><polygon class="cls-1" points="474.73 499.23 474.73 335.4 456.68 335.4 456.68 517.55 607.62 517.55 607.62 499.23 474.73 499.23"/><path class="cls-1" d="M521.77,335.4h19.15c25.88,0,46.86,19,46.86,42.94,0,23.15-19.67,42.06-44.4,43.24v0h-18V462h18V439.27c35.38-1.15,64.24-28,64.24-60.93,0-33.68-30.25-61-66.7-61H456.68v18h65.09Z"/><polygon class="cls-1" points="619.68 517.55 592.33 473.65 570.06 473.94 594.52 517.55 619.68 517.55"/><path class="cls-1" d="M165,595.89A27.42,27.42,0,0,1,176,606.81,32.82,32.82,0,0,1,180,623.06a31.65,31.65,0,0,1-4,16,27.11,27.11,0,0,1-11.35,10.76,36.59,36.59,0,0,1-17,3.79H123.83a.65.65,0,0,0-.74.74v39.94a1.78,1.78,0,0,1-1.79,1.78H107.64a1.71,1.71,0,0,1-1.26-.52,1.68,1.68,0,0,1-.52-1.26V593.82a1.72,1.72,0,0,1,.52-1.27,1.75,1.75,0,0,1,1.26-.52h40.83A34.15,34.15,0,0,1,165,595.89Zm-6.83,39.35a15.61,15.61,0,0,0,4.6-11.73,16.31,16.31,0,0,0-4.6-12q-4.6-4.59-12.18-4.6H123.83a.65.65,0,0,0-.74.74V639a.65.65,0,0,0,.74.74H146Q153.53,639.69,158.13,635.24Z"/><path class="cls-1" d="M287.3,695.08c0,.69-.5,1-1.49,1H270.52a2.83,2.83,0,0,1-2.23-1l-6.68-7.43a.71.71,0,0,0-1,0,50.81,50.81,0,0,1-30,9.65q-13.67,0-22.49-6.46t-8.84-18.93q0-10.1,5.57-17.07a59,59,0,0,1,15.07-12.92c.59-.39.64-.74.15-1q-7.87-9.5-10.4-14.7a24.51,24.51,0,0,1-2.52-10.84A22.54,22.54,0,0,1,210.68,603a24.41,24.41,0,0,1,10-8.76,32.84,32.84,0,0,1,14.77-3.2,35,35,0,0,1,15.29,3.2,25.09,25.09,0,0,1,10.47,9A23.89,23.89,0,0,1,265,616.53a25.06,25.06,0,0,1-5.35,15.89,54.73,54.73,0,0,1-14.4,12.47c-.5.3-.55.65-.15,1q6.83,8,16.63,18.86c.3.39.64.39,1,0a124.56,124.56,0,0,0,9.2-11.88,1.44,1.44,0,0,1,2.38-.6l10.1,5.79c1.18.7,1.38,1.49.59,2.38a140.62,140.62,0,0,1-12.32,16.33l-.15.3a1.73,1.73,0,0,0,.59,1.19q5.35,6.23,10.4,11.88c.69.89,1.31,1.63,1.85,2.22s1,1.09,1.41,1.49A2,2,0,0,1,287.3,695.08Zm-37.12-19c.39-.39.39-.74,0-1-.5-.49-1-1-1.49-1.63s-1-1.19-1.48-1.78q-1.94-2.24-6.39-7.28l-3.41-3.86Q235,658,231.62,654c-.2-.3-.55-.35-1-.15a47.28,47.28,0,0,0-10.25,8.46,14,14,0,0,0-3.56,9.36,9.85,9.85,0,0,0,3.79,8.09q3.78,3,10.17,3Q239.93,682.75,250.18,676.07Zm-22.64-66.52a9.45,9.45,0,0,0-3.2,7.43,11.61,11.61,0,0,0,1.79,5.64,84.82,84.82,0,0,0,7.57,10.1.66.66,0,0,0,1,.14,44.89,44.89,0,0,0,9.72-7.79,12.21,12.21,0,0,0,3.34-8.24,9.13,9.13,0,0,0-3.26-7.35,13,13,0,0,0-8.61-2.75A12.18,12.18,0,0,0,227.54,609.55Z"/><path class="cls-1" d="M371,694.78,351.44,652a1,1,0,0,0-.89-.6H332.73a.66.66,0,0,0-.74.75v42.16a1.78,1.78,0,0,1-1.78,1.78H316.55a1.78,1.78,0,0,1-1.79-1.78V594a1.78,1.78,0,0,1,1.79-1.78h40.83a33,33,0,0,1,16,3.79,26.82,26.82,0,0,1,10.84,10.69,31.86,31.86,0,0,1,3.86,15.81q0,10.24-5.27,17.45a27.26,27.26,0,0,1-14.62,10,.47.47,0,0,0-.45.3.62.62,0,0,0,0,.59L388.7,694a2.22,2.22,0,0,1,.3.89c0,.79-.54,1.18-1.63,1.18H373.12A2.09,2.09,0,0,1,371,694.78Zm-39.05-87v29.55a.65.65,0,0,0,.74.74H355q7.13,0,11.51-4.23t4.38-11.21a15.15,15.15,0,0,0-4.38-11.29Q362.13,607,355,607H332.73A.65.65,0,0,0,332,607.77Z"/><path class="cls-1" d="M473,694.63,446,594.11l-.14-.59c0-.89.54-1.34,1.63-1.34h14.55a2,2,0,0,1,2.08,1.49l16.92,67.7q.15.45.45.45t.45-.45l16.18-67.7a1.87,1.87,0,0,1,1.93-1.49h14.25a2,2,0,0,1,2.08,1.49l17.22,67.85q.15.45.45.45t.45-.45l16.63-67.85a1.94,1.94,0,0,1,2.07-1.49H567c1.39,0,1.93.65,1.64,1.93L543,694.63a2,2,0,0,1-2.08,1.48H527.08a2,2,0,0,1-2.08-1.48l-17.37-70.82a.7.7,0,0,0-.44-.52c-.2,0-.35.12-.45.52l-16.63,70.82a1.86,1.86,0,0,1-1.93,1.48H475.12A2,2,0,0,1,473,694.63Z"/><path class="cls-1" d="M763.75,694.78,744.15,652a1,1,0,0,0-.89-.6H725.44a.66.66,0,0,0-.74.75v42.16a1.68,1.68,0,0,1-.52,1.26,1.71,1.71,0,0,1-1.26.52H709.26a1.78,1.78,0,0,1-1.78-1.78V594a1.78,1.78,0,0,1,1.78-1.78h40.83a33,33,0,0,1,16,3.79A26.76,26.76,0,0,1,777,606.66a31.76,31.76,0,0,1,3.86,15.81q0,10.24-5.27,17.45a27.26,27.26,0,0,1-14.62,10,.48.48,0,0,0-.45.3.62.62,0,0,0,0,.59L781.42,694a2.33,2.33,0,0,1,.29.89c0,.79-.54,1.18-1.63,1.18H765.83A2.09,2.09,0,0,1,763.75,694.78Zm-39-87v29.55a.66.66,0,0,0,.74.74h22.27q7.13,0,11.51-4.23t4.38-11.21a15.15,15.15,0,0,0-4.38-11.29q-4.38-4.29-11.51-4.3H725.44A.66.66,0,0,0,724.7,607.77Z"/><path class="cls-1" d="M807.77,695.59a1.68,1.68,0,0,1-.52-1.26V594a1.71,1.71,0,0,1,.52-1.26,1.75,1.75,0,0,1,1.26-.52h13.66a1.78,1.78,0,0,1,1.78,1.78v86.56a.66.66,0,0,0,.75.75H875a1.78,1.78,0,0,1,1.78,1.78v11.28a1.78,1.78,0,0,1-1.78,1.78H809A1.71,1.71,0,0,1,807.77,695.59Z"/><path class="cls-1" d="M901.31,695.59a1.68,1.68,0,0,1-.52-1.26V594a1.71,1.71,0,0,1,.52-1.26,1.75,1.75,0,0,1,1.26-.52H938.8a43.83,43.83,0,0,1,18.56,3.71,28.43,28.43,0,0,1,12.4,10.62,29.41,29.41,0,0,1,4.38,16.11v43.06a29.44,29.44,0,0,1-4.38,16.11,28.35,28.35,0,0,1-12.4,10.61,43.68,43.68,0,0,1-18.56,3.71H902.57A1.71,1.71,0,0,1,901.31,695.59Zm17.45-14.32h20.78q7.88,0,12.55-5T956.91,663V625.44q0-8.46-4.75-13.44t-12.77-5H918.76a.66.66,0,0,0-.75.74v72.75A.66.66,0,0,0,918.76,681.27Z"/><path class="cls-1" d="M683,661.41a53.25,53.25,0,0,0,0-34,2.6,2.6,0,0,0-.16-.47c-6.94-19.94-25.42-34.24-47.06-34.24s-40.13,14.3-47.07,34.24a2.6,2.6,0,0,0-.16.47,53.43,53.43,0,0,0,0,34,2.6,2.6,0,0,0,.16.47c7,19.94,25.42,34.24,47.07,34.24s40.12-14.3,47.06-34.24a2.6,2.6,0,0,0,.16-.47ZM635.82,688.7c-1.91,0-5-3.56-7.55-11.52a83.24,83.24,0,0,1-2.95-13.07h21a83.24,83.24,0,0,1-2.95,13.07c-2.57,8-5.64,11.52-7.54,11.52Zm-11.37-32c-.34-4-.53-8.08-.53-12.3s.19-8.34.53-12.3h22.73c.34,4,.53,8.08.53,12.3s-.19,8.34-.53,12.3ZM593,644.4a45.77,45.77,0,0,1,1.68-12.3h22.61c-.34,4-.51,8.17-.51,12.3s.17,8.26.51,12.3H594.65A45.72,45.72,0,0,1,593,644.4Zm42.85-44.3c1.9,0,5,3.56,7.54,11.53a83.1,83.1,0,0,1,2.95,13.06h-21a82.84,82.84,0,0,1,2.95-13.06c2.57-8,5.64-11.53,7.55-11.53Zm18.55,32H677a45.87,45.87,0,0,1,0,24.6H654.37c.34-4,.5-8.17.5-12.3s-.16-8.26-.5-12.3Zm19.81-7.41H653.55c-1.28-9.09-3.46-17.25-6.53-23.05a43.41,43.41,0,0,1,27.16,23.05Zm-49.57-23.05c-3.06,5.8-5.25,14-6.53,23.05H597.45a43.41,43.41,0,0,1,27.16-23.05Zm-27.16,62.47h20.63c1.28,9.09,3.47,17.25,6.53,23a43.41,43.41,0,0,1-27.16-23Zm49.57,23c3.07-5.8,5.25-14,6.53-23h20.63a43.41,43.41,0,0,1-27.16,23Zm0,0"/><path class="cls-1" d="M297.77,762.65l-2.64-.57a20.94,20.94,0,0,1-4.95-1.69,20.7,20.7,0,0,1-4.3-2.82l3-3.8a16.68,16.68,0,0,0,5.41,3.21,18.56,18.56,0,0,0,6.42,1.07q4.89,0,7.54-1.86a6,6,0,0,0,2.67-5.27v0a5.19,5.19,0,0,0-1.19-3.58,7.22,7.22,0,0,0-3.05-2,32.42,32.42,0,0,0-4.84-1.2l-.18,0-.18-.05-.62-.11a48.77,48.77,0,0,1-6.83-1.65,9.59,9.59,0,0,1-4.41-3.13,9.75,9.75,0,0,1-1.81-6.3v0a11.86,11.86,0,0,1,1.7-6.5,10.66,10.66,0,0,1,5-4.1,19.76,19.76,0,0,1,7.86-1.41,19.48,19.48,0,0,1,4.3.48,21.43,21.43,0,0,1,4.2,1.42,25,25,0,0,1,4.1,2.38L312.15,729a21.36,21.36,0,0,0-4.93-2.66,14.07,14.07,0,0,0-4.85-.89q-4.62,0-7.16,1.89a6.3,6.3,0,0,0-2.54,5.36v0a4.71,4.71,0,0,0,1.28,3.49,7.91,7.91,0,0,0,3.21,1.89,46.35,46.35,0,0,0,5.29,1.27l.23,0,.22.06.33.06.32,0a38.35,38.35,0,0,1,6.32,1.82,9.28,9.28,0,0,1,5.92,9.34v.06a11.3,11.3,0,0,1-1.78,6.41,11,11,0,0,1-5.14,4.06,21.27,21.27,0,0,1-8.14,1.4Z"/><path class="cls-1" d="M329.17,721.24h4.9v41h-4.9Zm2.79,0H355.5v4.62H332Zm0,18.32H352.4v4.63H332Zm0,18H355.5v4.62H332Z"/><path class="cls-1" d="M369.44,721.21h4.91v41h-4.91ZM372,740.27h14a6.69,6.69,0,0,0,3.47-.89,5.94,5.94,0,0,0,2.31-2.54,8.77,8.77,0,0,0,.85-3.79,8.49,8.49,0,0,0-.82-3.79,6.06,6.06,0,0,0-2.31-2.54,6.74,6.74,0,0,0-3.5-.88H372v-4.63h13.76a12.84,12.84,0,0,1,6.24,1.47,10.31,10.31,0,0,1,4.17,4.16,13.79,13.79,0,0,1,0,12.43,10.25,10.25,0,0,1-4.18,4.15,12.86,12.86,0,0,1-6.23,1.47H372Zm12.15,3.35,4.74-1.3,10.48,19.9h-5.83Z"/><path class="cls-1" d="M408.33,721.24h5.28l10.82,33.68,10.82-33.68h5.27l-13.78,41h-4.62Z"/><path class="cls-1" d="M457.83,762.22h-4.91v-41h4.91Z"/><path class="cls-1" d="M483.33,762.65l-3.23-1.89a12.77,12.77,0,0,1-5-5.36,17.3,17.3,0,0,1-1.78-8V736.12a17.3,17.3,0,0,1,1.78-8,12.91,12.91,0,0,1,5-5.37,15.43,15.43,0,0,1,14-.44,13.45,13.45,0,0,1,4.94,4.18,15.46,15.46,0,0,1,2.7,6.25h-5a10.3,10.3,0,0,0-2-3.76,9.81,9.81,0,0,0-3.27-2.55,8.86,8.86,0,0,0-3.88-.9,9,9,0,0,0-4.89,1.32,8.87,8.87,0,0,0-3.25,3.72,12.73,12.73,0,0,0-1.16,5.58v11.25a12.75,12.75,0,0,0,1.16,5.57,8.75,8.75,0,0,0,3.25,3.72,9.08,9.08,0,0,0,4.89,1.31,9.31,9.31,0,0,0,7.15-3.33,10,10,0,0,0,2-3.89h5A15.46,15.46,0,0,1,499,757a13.56,13.56,0,0,1-5,4.17,14.32,14.32,0,0,1-6.46,1.47Z"/><path class="cls-1" d="M515.09,721.24H520v41h-4.9Zm2.79,0h23.54v4.62H517.88Zm0,18.32h20.44v4.63H517.88Zm0,18h23.54v4.62H517.88Z"/><path class="cls-1" d="M564.72,762.65l-2.65-.57a21.25,21.25,0,0,1-5-1.69,20.64,20.64,0,0,1-4.29-2.82l3-3.8a16.89,16.89,0,0,0,5.41,3.21,18.66,18.66,0,0,0,6.43,1.07q4.88,0,7.54-1.86a6,6,0,0,0,2.66-5.27v0a5.19,5.19,0,0,0-1.18-3.58,7.26,7.26,0,0,0-3.06-2,32.57,32.57,0,0,0-4.83-1.2l-.19,0-.18-.05-.62-.11a48.58,48.58,0,0,1-6.82-1.65,9.54,9.54,0,0,1-4.41-3.13,9.75,9.75,0,0,1-1.82-6.3v0a11.86,11.86,0,0,1,1.71-6.5,10.63,10.63,0,0,1,5-4.1,19.81,19.81,0,0,1,7.87-1.41,19.46,19.46,0,0,1,4.29.48,21.43,21.43,0,0,1,4.2,1.42,24.57,24.57,0,0,1,4.1,2.38L579.1,729a21.42,21.42,0,0,0-4.94-2.66,14,14,0,0,0-4.84-.89c-3.09,0-5.47.63-7.16,1.89a6.27,6.27,0,0,0-2.54,5.36v0a4.71,4.71,0,0,0,1.28,3.49,7.88,7.88,0,0,0,3.2,1.89,47.15,47.15,0,0,0,5.3,1.27l.23,0,.22.06.33.06.32,0a38.21,38.21,0,0,1,6.31,1.82,10,10,0,0,1,4.23,3.27,9.83,9.83,0,0,1,1.69,6.07v.06a11.3,11.3,0,0,1-1.77,6.41,11.06,11.06,0,0,1-5.15,4.06,21.18,21.18,0,0,1-8.13,1.4Z"/><path class="cls-1" d="M627.31,762.65l-2.65-.57a21,21,0,0,1-4.94-1.69,20.44,20.44,0,0,1-4.3-2.82l3-3.8a16.83,16.83,0,0,0,5.42,3.21,18.56,18.56,0,0,0,6.42,1.07c3.25,0,5.77-.62,7.54-1.86a6,6,0,0,0,2.67-5.27v0a5.19,5.19,0,0,0-1.19-3.58,7.26,7.26,0,0,0-3.06-2,32.57,32.57,0,0,0-4.83-1.2l-.18,0L631,744l-.62-.11a48.58,48.58,0,0,1-6.82-1.65,9.54,9.54,0,0,1-4.41-3.13,9.75,9.75,0,0,1-1.82-6.3v0a11.86,11.86,0,0,1,1.71-6.5,10.63,10.63,0,0,1,5-4.1,19.81,19.81,0,0,1,7.87-1.41,19.55,19.55,0,0,1,4.3.48,21.89,21.89,0,0,1,4.2,1.42,25.4,25.4,0,0,1,4.1,2.38L641.69,729a21.36,21.36,0,0,0-4.93-2.66,14.11,14.11,0,0,0-4.85-.89q-4.62,0-7.16,1.89a6.3,6.3,0,0,0-2.54,5.36v0a4.71,4.71,0,0,0,1.28,3.49,7.88,7.88,0,0,0,3.2,1.89,47.15,47.15,0,0,0,5.3,1.27l.23,0,.22.06.33.06.32,0a38.21,38.21,0,0,1,6.31,1.82,9.24,9.24,0,0,1,5.92,9.34v.06a11.3,11.3,0,0,1-1.77,6.41,11.06,11.06,0,0,1-5.15,4.06,21.18,21.18,0,0,1-8.13,1.4Z"/><path class="cls-1" d="M656.39,756.9h5.3v5.32h-5.3Z"/><path class="cls-1" d="M687.59,721.24h4.91l15.1,41h-5.35L690,727.33l-12.2,34.89h-5.36Zm-8.14,26.89H701v4.62H679.45Z"/><path class="cls-1" d="M718.39,756.9h5.3v5.32h-5.3Z"/><path class="cls-1" d="M745.9,762.65l-3.23-1.89a12.77,12.77,0,0,1-5-5.36,17.43,17.43,0,0,1-1.78-8V736.12a17.43,17.43,0,0,1,1.78-8,12.91,12.91,0,0,1,5-5.37,15.43,15.43,0,0,1,14-.44,13.56,13.56,0,0,1,5,4.18,15.58,15.58,0,0,1,2.69,6.25h-5a10.3,10.3,0,0,0-2-3.76A9.81,9.81,0,0,0,754,726.4a8.85,8.85,0,0,0-3.87-.9,9,9,0,0,0-4.89,1.32,8.89,8.89,0,0,0-3.26,3.72,12.73,12.73,0,0,0-1.16,5.58v11.25a12.75,12.75,0,0,0,1.16,5.57,8.77,8.77,0,0,0,3.26,3.72,9.08,9.08,0,0,0,4.89,1.31,9.31,9.31,0,0,0,7.14-3.33,10,10,0,0,0,2-3.89h5a15.32,15.32,0,0,1-2.71,6.26,13.48,13.48,0,0,1-5,4.17,14.28,14.28,0,0,1-6.45,1.47Z"/></svg>